<svg width="282" height="47" viewBox="0 0 282 47" fill="none" xmlns="http://www.w3.org/2000/svg">
<path d="M5.13213 36.4951C4.00948 36.4951 3.10957 36.1743 2.43242 35.5328C1.75526 34.8735 1.41668 33.9914 1.41668 32.8865C1.41668 31.9243 1.65725 31.1491 2.13839 30.561C2.61953 29.9552 3.41251 29.4918 4.51735 29.1711C5.64 28.8503 7.14578 28.6543 9.03469 28.583V26.4714C9.03469 25.7408 8.93668 25.1438 8.74066 24.6805C8.54465 24.2172 8.2328 23.8786 7.80512 23.6647C7.39526 23.4331 6.86066 23.3173 6.20133 23.3173C5.70237 23.3173 5.20341 23.3974 4.70446 23.5578C4.2055 23.7182 3.84019 23.9231 3.60853 24.1726C3.80455 24.4577 3.96493 24.7072 4.08967 24.921C4.21441 25.1349 4.2946 25.3131 4.33024 25.4556C4.3837 25.5982 4.41043 25.714 4.41043 25.8031C4.41043 26.1417 4.27678 26.4268 4.00948 26.6585C3.74218 26.8901 3.39469 27.006 2.96701 27.006C2.48588 27.006 2.11166 26.8901 1.84436 26.6585C1.59488 26.409 1.47014 26.0615 1.47014 25.616C1.47014 25.0101 1.7018 24.4488 2.16512 23.932C2.62844 23.3974 3.24322 22.9698 4.00948 22.649C4.79355 22.3282 5.64 22.1679 6.54882 22.1679C7.67147 22.1679 8.59811 22.3461 9.32872 22.7025C10.0772 23.041 10.6296 23.5667 10.986 24.2795C11.3424 24.9923 11.5206 25.8922 11.5206 26.9792V33.5815C11.5206 33.9914 11.6275 34.2943 11.8413 34.4903C12.0552 34.6864 12.3492 34.7844 12.7234 34.7844C12.9194 34.7844 13.1155 34.7665 13.3115 34.7309C13.5253 34.6953 13.757 34.6329 14.0064 34.5438L14.247 35.3991C13.9084 35.7377 13.5075 36.005 13.0442 36.201C12.5987 36.3971 12.171 36.4951 11.7611 36.4951C10.9949 36.4951 10.4068 36.2901 9.99697 35.8803C9.58711 35.4704 9.33763 34.8645 9.24853 34.0627C8.90995 34.6329 8.53574 35.0962 8.12588 35.4526C7.73384 35.7912 7.28834 36.0496 6.78938 36.2278C6.29043 36.406 5.73801 36.4951 5.13213 36.4951ZM6.1746 34.8111C6.72701 34.8111 7.21706 34.6864 7.64474 34.4369C8.07242 34.1874 8.411 33.8488 8.66047 33.4211C8.90995 32.9756 9.03469 32.4856 9.03469 31.951V29.7591C7.89422 29.7591 6.94976 29.8572 6.20133 30.0532C5.45289 30.2492 4.90047 30.561 4.54408 30.9887C4.18768 31.3986 4.00948 31.9332 4.00948 32.5925C4.00948 33.2875 4.19659 33.831 4.57081 34.223C4.96284 34.6151 5.49744 34.8111 6.1746 34.8111ZM15.8855 36.4951L15.4578 31.8441L16.7408 31.7639C16.9903 32.5301 17.2932 33.1627 17.6496 33.6617C18.0239 34.1428 18.4604 34.5082 18.9594 34.7576C19.4584 34.9893 20.0019 35.1051 20.5899 35.1051C21.4096 35.1051 22.0512 34.8913 22.5145 34.4636C22.9778 34.0359 23.2095 33.4568 23.2095 32.7262C23.2095 32.2985 23.1025 31.9421 22.8887 31.657C22.6927 31.3718 22.3541 31.1224 21.873 30.9085C21.4096 30.6769 20.7859 30.4541 20.0019 30.2403C19.2891 30.0443 18.6654 29.8304 18.1308 29.5988C17.5962 29.3493 17.1507 29.0731 16.7943 28.7701C16.4379 28.4494 16.1706 28.0841 15.9924 27.6742C15.832 27.2465 15.7518 26.7476 15.7518 26.1773C15.7518 25.3754 15.9389 24.6716 16.3131 24.0657C16.6874 23.4598 17.2131 22.9965 17.8902 22.6757C18.5852 22.3372 19.396 22.1679 20.3226 22.1679C20.9285 22.1679 21.4987 22.257 22.0333 22.4352C22.5858 22.6134 23.0223 22.8361 23.3431 23.1034L23.5837 22.1679H24.5727L24.9202 26.4981L23.6104 26.3912C23.3966 25.4824 23.0045 24.7607 22.4343 24.2261C21.864 23.6915 21.178 23.4242 20.3761 23.4242C19.592 23.4242 18.9772 23.6024 18.5317 23.9588C18.104 24.2973 17.8902 24.7963 17.8902 25.4556C17.8902 25.8833 17.9882 26.2397 18.1842 26.5248C18.3981 26.81 18.7367 27.0594 19.2 27.2733C19.6633 27.4871 20.2692 27.7009 21.0176 27.9148C21.766 28.1286 22.4076 28.3603 22.9422 28.6098C23.4946 28.8592 23.949 29.1444 24.3054 29.4651C24.6618 29.7859 24.9202 30.1601 25.0805 30.5878C25.2587 31.0155 25.3478 31.5144 25.3478 32.0846C25.3478 32.9578 25.1429 33.7241 24.7331 34.3834C24.3232 35.0427 23.7619 35.5595 23.0491 35.9337C22.3363 36.308 21.4987 36.4951 20.5365 36.4951C19.8415 36.4951 19.2 36.406 18.6119 36.2278C18.0417 36.0674 17.5516 35.8357 17.1418 35.5328L16.821 36.4951H15.8855ZM39.9755 36.3614C39.53 36.3614 39.138 36.2991 38.7994 36.1743C38.4609 36.0674 38.1223 35.8714 37.7837 35.5863C37.4629 35.3011 37.0887 34.9002 36.661 34.3834L32.2239 28.9573V28.7434L36.6076 24.7874C36.8571 24.5914 36.9729 24.3864 36.9551 24.1726C36.9551 23.9588 36.8303 23.8251 36.5809 23.7717L35.4582 23.5845L35.672 22.5421H41.3388V23.5578L40.5101 23.7984C40.2607 23.8697 39.9845 23.9766 39.6815 24.1191C39.3964 24.2617 39.0667 24.4934 38.6925 24.8141L34.7365 28.1821L39.2004 33.4746C39.5211 33.8666 39.833 34.1696 40.1359 34.3834C40.4389 34.5794 40.7774 34.6774 41.1517 34.6774C41.2764 34.6774 41.419 34.6596 41.5793 34.624C41.7575 34.5883 41.9803 34.526 42.2476 34.4369L42.4882 35.2655C42.1496 35.6041 41.7486 35.8714 41.2853 36.0674C40.8398 36.2634 40.4032 36.3614 39.9755 36.3614ZM27.2521 36.1209V35.0249L28.6955 34.8111C29.0519 34.7576 29.2747 34.6418 29.3638 34.4636C29.4707 34.2854 29.5242 33.9468 29.5242 33.4479V18.6663C29.5242 18.0604 29.4618 17.6594 29.3371 17.4634C29.2301 17.2674 28.9272 17.1337 28.4282 17.0625L27.2254 16.9021L27.3323 15.7794L31.7428 15.6458L32.01 15.9131V33.5548C32.01 33.9646 32.0546 34.2676 32.1437 34.4636C32.2506 34.6418 32.4466 34.7576 32.7318 34.8111L33.694 34.9982V36.1209H27.2521ZM56.1674 41.8945V40.8253L57.7712 40.5847C58.0919 40.5313 58.3147 40.4065 58.4394 40.2105C58.5641 40.0323 58.6265 39.7294 58.6265 39.3017V34.3032V34.223C58.2523 34.722 57.8335 35.1408 57.3702 35.4793C56.9247 35.8179 56.4436 36.0674 55.9268 36.2278C55.41 36.406 54.8398 36.4951 54.2161 36.4951C53.1113 36.4951 52.149 36.2278 51.3293 35.6932C50.5274 35.1408 49.9037 34.3656 49.4582 33.3677C49.0305 32.3519 48.8167 31.158 48.8167 29.7859C48.8167 28.2355 49.084 26.8901 49.6186 25.7497C50.1532 24.6092 50.9105 23.7271 51.8906 23.1034C52.8707 22.4797 54.0201 22.1679 55.3387 22.1679C55.8377 22.1679 56.3099 22.2124 56.7554 22.3015C57.2187 22.3728 57.6464 22.4975 58.0385 22.6757C58.4483 22.8539 58.8225 23.0767 59.1611 23.344L60.4441 22.1946L61.1124 22.3817V39.3819C61.1124 39.8096 61.1748 40.1036 61.2995 40.264C61.4242 40.4422 61.6292 40.5491 61.9143 40.5847L63.1706 40.7986V41.8945H56.1674ZM55.0982 34.7844C55.7753 34.7844 56.3812 34.624 56.9158 34.3032C57.4504 33.9646 57.8692 33.5013 58.1721 32.9133C58.475 32.3252 58.6265 31.6302 58.6265 30.8283V24.8141C58.1988 24.4577 57.691 24.1815 57.1029 23.9855C56.5327 23.7717 55.9268 23.6647 55.2853 23.6647C54.4299 23.6647 53.7171 23.8786 53.1469 24.3063C52.5945 24.7161 52.1757 25.3487 51.8906 26.2041C51.6055 27.0594 51.4629 28.1464 51.4629 29.4651C51.4629 31.2293 51.7748 32.5569 52.3985 33.4479C53.0222 34.3389 53.9221 34.7844 55.0982 34.7844ZM70.4351 36.4951C69.0451 36.4951 67.9848 36.1119 67.2542 35.3457C66.5414 34.5616 66.185 33.4211 66.185 31.9243V25.5626C66.185 24.921 66.1316 24.5023 66.0246 24.3063C65.9177 24.0924 65.6682 23.9588 65.2762 23.9053L64.1535 23.7182L64.3139 22.649L68.3769 22.355L68.6709 22.5421V31.3362C68.6709 32.1737 68.7511 32.842 68.9115 33.3409C69.0718 33.8399 69.3391 34.2052 69.7134 34.4369C70.0876 34.6507 70.5954 34.7576 71.237 34.7576C71.9676 34.7576 72.6002 34.6151 73.1348 34.33C73.6694 34.027 74.0792 33.5993 74.3643 33.0469C74.6495 32.4945 74.792 31.8441 74.792 31.0956V25.5626C74.792 24.9389 74.7386 24.5201 74.6316 24.3063C74.5425 24.0924 74.2931 23.9588 73.8832 23.9053L72.7338 23.7182L72.8942 22.649L76.9839 22.355L77.2779 22.5421V33.635C77.2779 34.0627 77.3314 34.3567 77.4383 34.5171C77.563 34.6774 77.7947 34.7844 78.1333 34.8378L79.4698 35.0517V36.1209L75.2732 36.308L74.9257 34.0894H74.8455C74.4178 34.6596 73.9723 35.1229 73.509 35.4793C73.0635 35.8179 72.5913 36.0674 72.0923 36.2278C71.5934 36.406 71.0409 36.4951 70.4351 36.4951ZM87.7535 36.4951C86.4883 36.4951 85.3835 36.2189 84.439 35.6664C83.4945 35.0962 82.755 34.2943 82.2204 33.2608C81.7036 32.2094 81.4453 30.962 81.4453 29.5186C81.4453 28.0217 81.7126 26.7209 82.2472 25.616C82.7996 24.5112 83.5658 23.6647 84.5459 23.0767C85.526 22.4708 86.6665 22.1679 87.9673 22.1679C88.9474 22.1679 89.8028 22.3639 90.5334 22.7559C91.264 23.148 91.8343 23.7004 92.2441 24.4132C92.654 25.126 92.8589 25.9546 92.8589 26.8991C92.8589 27.2554 92.8322 27.6386 92.7787 28.0484C92.7253 28.4405 92.6451 28.8592 92.5381 29.3047H84.145C84.1628 30.4274 84.3499 31.3808 84.7063 32.1648C85.0627 32.9489 85.5527 33.5459 86.1764 33.9557C86.818 34.3478 87.5664 34.5438 88.4217 34.5438C89.1167 34.5438 89.785 34.4101 90.4265 34.1428C91.0858 33.8577 91.6828 33.4479 92.2174 32.9133L93.0193 33.6884C92.3956 34.5973 91.6204 35.2922 90.6938 35.7734C89.7672 36.2545 88.7871 36.4951 87.7535 36.4951ZM84.145 28.0217H90.2661C90.2839 27.8435 90.2928 27.6564 90.2928 27.4604C90.3107 27.2465 90.3196 27.0238 90.3196 26.7921C90.3196 25.6338 90.0968 24.7785 89.6513 24.2261C89.2236 23.6558 88.5643 23.3707 87.6733 23.3707C86.9962 23.3707 86.4081 23.54 85.9091 23.8786C85.428 24.2172 85.036 24.7339 84.733 25.4289C84.4301 26.1061 84.2341 26.9703 84.145 28.0217ZM95.4486 36.4951L95.0209 31.8441L96.3039 31.7639C96.5534 32.5301 96.8563 33.1627 97.2127 33.6617C97.587 34.1428 98.0235 34.5082 98.5225 34.7576C99.0215 34.9893 99.565 35.1051 100.153 35.1051C100.973 35.1051 101.614 34.8913 102.078 34.4636C102.541 34.0359 102.773 33.4568 102.773 32.7262C102.773 32.2985 102.666 31.9421 102.452 31.657C102.256 31.3718 101.917 31.1224 101.436 30.9085C100.973 30.6769 100.349 30.4541 99.565 30.2403C98.8522 30.0443 98.2285 29.8304 97.6939 29.5988C97.1593 29.3493 96.7138 29.0731 96.3574 28.7701C96.001 28.4494 95.7337 28.0841 95.5555 27.6742C95.3951 27.2465 95.3149 26.7476 95.3149 26.1773C95.3149 25.3754 95.502 24.6716 95.8762 24.0657C96.2505 23.4598 96.7762 22.9965 97.4533 22.6757C98.1483 22.3372 98.9591 22.1679 99.8857 22.1679C100.492 22.1679 101.062 22.257 101.596 22.4352C102.149 22.6134 102.585 22.8361 102.906 23.1034L103.147 22.1679H104.136L104.483 26.4981L103.173 26.3912C102.96 25.4824 102.568 24.7607 101.997 24.2261C101.427 23.6915 100.741 23.4242 99.9392 23.4242C99.1551 23.4242 98.5403 23.6024 98.0948 23.9588C97.6671 24.2973 97.4533 24.7963 97.4533 25.4556C97.4533 25.8833 97.5513 26.2397 97.7473 26.5248C97.9612 26.81 98.2998 27.0594 98.7631 27.2733C99.2264 27.4871 99.8323 27.7009 100.581 27.9148C101.329 28.1286 101.971 28.3603 102.505 28.6098C103.058 28.8592 103.512 29.1444 103.868 29.4651C104.225 29.7859 104.483 30.1601 104.644 30.5878C104.822 31.0155 104.911 31.5144 104.911 32.0846C104.911 32.9578 104.706 33.7241 104.296 34.3834C103.886 35.0427 103.325 35.5595 102.612 35.9337C101.899 36.308 101.062 36.4951 100.1 36.4951C99.4046 36.4951 98.7631 36.406 98.175 36.2278C97.6048 36.0674 97.1147 35.8357 96.7049 35.5328L96.3841 36.4951H95.4486ZM112.084 36.4951C111.318 36.4951 110.676 36.3614 110.16 36.0941C109.643 35.809 109.251 35.3724 108.983 34.7844C108.734 34.1963 108.609 33.439 108.609 32.5123V23.9588H106.551V22.8094C107.175 22.7559 107.692 22.5688 108.101 22.2481C108.511 21.9273 108.823 21.4373 109.037 20.7779C109.269 20.1186 109.429 19.2543 109.518 18.1851L110.801 17.998L111.095 18.1584V22.5421H115.212V23.9588H111.095V32.3252C111.095 33.1093 111.247 33.6884 111.55 34.0627C111.852 34.4369 112.325 34.624 112.966 34.624C113.43 34.624 113.866 34.5527 114.276 34.4101C114.704 34.2498 115.122 34.0181 115.532 33.7152L116.067 34.5171C115.514 35.1408 114.9 35.6308 114.223 35.9872C113.545 36.3258 112.833 36.4951 112.084 36.4951ZM117.281 36.1209V35.0249L118.778 34.7844C119.135 34.7309 119.357 34.6151 119.447 34.4369C119.536 34.2587 119.58 33.929 119.58 33.4479V25.616C119.58 24.9923 119.518 24.5736 119.393 24.3597C119.286 24.1281 119.037 23.9944 118.645 23.9588L117.335 23.7717L117.495 22.6757L121.772 22.4352L122.066 22.5688V33.5548C122.066 33.9112 122.111 34.1874 122.2 34.3834C122.289 34.5794 122.52 34.7131 122.895 34.7844L124.392 35.0517V36.1209H117.281ZM120.436 19.5483C119.937 19.5483 119.518 19.388 119.179 19.0672C118.841 18.7286 118.671 18.3009 118.671 17.7842C118.671 17.2674 118.841 16.8397 119.179 16.5011C119.518 16.1626 119.937 15.9933 120.436 15.9933C120.97 15.9933 121.407 16.1626 121.745 16.5011C122.084 16.8219 122.253 17.2407 122.253 17.7574C122.253 18.2742 122.084 18.7019 121.745 19.0405C121.407 19.3791 120.97 19.5483 120.436 19.5483ZM132.707 36.4951C131.406 36.4951 130.266 36.2189 129.286 35.6664C128.306 35.0962 127.548 34.3032 127.014 33.2875C126.497 32.2539 126.239 31.0333 126.239 29.6255C126.239 28.093 126.515 26.7743 127.067 25.6695C127.62 24.5468 128.413 23.6826 129.446 23.0767C130.48 22.4708 131.692 22.1679 133.081 22.1679C134.382 22.1679 135.496 22.4441 136.423 22.9965C137.367 23.5489 138.098 24.333 138.615 25.3487C139.131 26.3645 139.39 27.5673 139.39 28.9573C139.39 30.4898 139.114 31.8263 138.561 32.9667C138.027 34.0894 137.26 34.9626 136.262 35.5863C135.264 36.1921 134.079 36.4951 132.707 36.4951ZM133.108 35.0784C133.874 35.0784 134.525 34.8735 135.06 34.4636C135.594 34.0537 135.995 33.4479 136.262 32.646C136.53 31.8263 136.663 30.8194 136.663 29.6255C136.663 28.6454 136.574 27.7811 136.396 27.0327C136.218 26.2664 135.951 25.6249 135.594 25.1082C135.256 24.5914 134.837 24.1993 134.338 23.932C133.839 23.6469 133.278 23.5044 132.654 23.5044C131.852 23.5044 131.175 23.7093 130.622 24.1191C130.088 24.5112 129.669 25.0992 129.366 25.8833C129.081 26.6674 128.938 27.6564 128.938 28.8503C128.938 30.1868 129.108 31.3184 129.446 32.245C129.803 33.1717 130.284 33.8755 130.89 34.3567C131.513 34.8378 132.253 35.0784 133.108 35.0784ZM141.801 36.1209V35.0517L143.084 34.8378C143.369 34.7844 143.556 34.6774 143.645 34.5171C143.734 34.3389 143.779 34.0181 143.779 33.5548V25.5358C143.779 24.9121 143.725 24.4934 143.618 24.2795C143.511 24.0657 143.262 23.932 142.87 23.8786L141.533 23.7182L141.694 22.649L145.57 22.355L145.864 22.5421L145.997 24.9745H146.077C146.541 24.1013 147.191 23.4153 148.029 22.9163C148.884 22.4173 149.784 22.1679 150.728 22.1679C151.655 22.1679 152.439 22.3461 153.081 22.7025C153.722 23.041 154.203 23.5489 154.524 24.2261C154.863 24.9032 155.032 25.7408 155.032 26.7387V33.7686C155.032 34.1607 155.085 34.428 155.192 34.5705C155.299 34.7131 155.522 34.8111 155.861 34.8646L157.117 35.0517V36.1209H150.568V35.0784L151.744 34.8913C152.083 34.82 152.297 34.7131 152.386 34.5705C152.493 34.428 152.546 34.1607 152.546 33.7686V27.3267C152.546 26.4892 152.466 25.8209 152.305 25.322C152.145 24.823 151.869 24.4666 151.477 24.2528C151.085 24.0211 150.559 23.9053 149.9 23.9053C149.169 23.9053 148.528 24.0568 147.975 24.3597C147.441 24.6627 147.022 25.0992 146.719 25.6695C146.416 26.2219 146.265 26.8723 146.265 27.6208V33.6617C146.265 34.0537 146.309 34.33 146.398 34.4903C146.487 34.6507 146.665 34.7576 146.933 34.8111L148.349 35.0784V36.1209H141.801ZM159.454 36.4951L159.026 31.8441L160.309 31.7639C160.559 32.5301 160.862 33.1627 161.218 33.6617C161.592 34.1428 162.029 34.5082 162.528 34.7576C163.027 34.9893 163.57 35.1051 164.159 35.1051C164.978 35.1051 165.62 34.8913 166.083 34.4636C166.546 34.0359 166.778 33.4568 166.778 32.7262C166.778 32.2985 166.671 31.9421 166.457 31.657C166.261 31.3718 165.923 31.1224 165.442 30.9085C164.978 30.6769 164.355 30.4541 163.57 30.2403C162.858 30.0443 162.234 29.8304 161.699 29.5988C161.165 29.3493 160.719 29.0731 160.363 28.7701C160.006 28.4494 159.739 28.0841 159.561 27.6742C159.401 27.2465 159.32 26.7476 159.32 26.1773C159.32 25.3754 159.508 24.6716 159.882 24.0657C160.256 23.4598 160.782 22.9965 161.459 22.6757C162.154 22.3372 162.965 22.1679 163.891 22.1679C164.497 22.1679 165.067 22.257 165.602 22.4352C166.154 22.6134 166.591 22.8361 166.912 23.1034L167.152 22.1679H168.141L168.489 26.4981L167.179 26.3912C166.965 25.4824 166.573 24.7607 166.003 24.2261C165.433 23.6915 164.747 23.4242 163.945 23.4242C163.161 23.4242 162.546 23.6024 162.1 23.9588C161.673 24.2973 161.459 24.7963 161.459 25.4556C161.459 25.8833 161.557 26.2397 161.753 26.5248C161.967 26.81 162.305 27.0594 162.769 27.2733C163.232 27.4871 163.838 27.7009 164.586 27.9148C165.335 28.1286 165.976 28.3603 166.511 28.6098C167.063 28.8592 167.518 29.1444 167.874 29.4651C168.23 29.7859 168.489 30.1601 168.649 30.5878C168.827 31.0155 168.916 31.5144 168.916 32.0846C168.916 32.9578 168.711 33.7241 168.302 34.3834C167.892 35.0427 167.33 35.5595 166.618 35.9337C165.905 36.308 165.067 36.4951 164.105 36.4951C163.41 36.4951 162.769 36.406 162.181 36.2278C161.61 36.0674 161.12 35.8357 160.71 35.5328L160.39 36.4951H159.454Z" fill="black"/>
<rect x="176.592" y="0.111374" width="47.9126" height="46.7773" fill="#FDE24F"/>
<path d="M199.495 28.2222V25.7163C199.495 25.4623 199.535 25.2218 199.615 24.9945C199.695 24.754 199.836 24.5 200.036 24.2327C200.237 23.9654 200.517 23.6581 200.878 23.3106C201.426 22.7626 201.807 22.3082 202.021 21.9473C202.235 21.5731 202.342 21.1789 202.342 20.7645C202.342 20.1364 202.141 19.6419 201.74 19.281C201.339 18.9202 200.811 18.7398 200.157 18.7398C199.715 18.7398 199.328 18.8066 198.994 18.9402C198.66 19.0605 198.386 19.2476 198.172 19.5016C198.332 19.702 198.486 19.9359 198.633 20.2032C198.78 20.4572 198.853 20.6643 198.853 20.8247C198.853 21.0519 198.733 21.2657 198.493 21.4662C198.265 21.6667 197.985 21.7669 197.651 21.7669C197.223 21.7669 196.922 21.6533 196.748 21.4261C196.575 21.1855 196.488 20.8982 196.488 20.5641C196.488 20.0428 196.675 19.5684 197.049 19.1407C197.423 18.6997 197.905 18.3589 198.493 18.1183C199.094 17.8644 199.736 17.7374 200.417 17.7374C201.192 17.7374 201.867 17.871 202.442 18.1383C203.017 18.4056 203.458 18.7865 203.765 19.281C204.086 19.7622 204.246 20.3369 204.246 21.0051C204.246 21.4729 204.159 21.9139 203.986 22.3282C203.812 22.7292 203.578 23.1101 203.284 23.4709C203.003 23.8318 202.689 24.1793 202.342 24.5134C201.954 24.901 201.64 25.2284 201.399 25.4957C201.172 25.7497 200.992 25.9635 200.858 26.1373C200.738 26.2976 200.651 26.4446 200.598 26.5783C200.557 26.6986 200.537 26.8322 200.537 26.9792V28.2222H199.495ZM200.036 32.392C199.622 32.392 199.281 32.2651 199.014 32.0111C198.747 31.7438 198.613 31.4097 198.613 31.0088C198.613 30.5811 198.747 30.2403 199.014 29.9864C199.281 29.7191 199.622 29.5854 200.036 29.5854C200.451 29.5854 200.785 29.7191 201.039 29.9864C201.306 30.2403 201.44 30.5744 201.44 30.9887C201.44 31.3897 201.306 31.7238 201.039 31.9911C200.785 32.2584 200.451 32.392 200.036 32.392Z" fill="black"/>
</svg>
